<?xml version="1.0" standalone="no"?>
<!DOCTYPE svg PUBLIC "-//W3C//DTD SVG 20010904//EN"
 "http://www.w3.org/TR/2001/REC-SVG-20010904/DTD/svg10.dtd">
<svg version="1.0" xmlns="http://www.w3.org/2000/svg"
 width="512.000000pt" height="512.000000pt" viewBox="0 0 512.000000 512.000000"
 preserveAspectRatio="xMidYMid meet">
<metadata>
Created by potrace 1.11, written by Peter Selinger 2001-2013
</metadata>
<g transform="translate(0.000000,512.000000) scale(0.100000,-0.100000)"
fill="#000000" stroke="none">
<path d="M2320 5110 c-491 -47 -981 -247 -1365 -557 -129 -104 -340 -321 -433
-445 -274 -365 -443 -782 -504 -1238 -16 -123 -16 -509 0 -625 65 -459 233
-873 501 -1230 92 -122 304 -341 426 -440 368 -299 822 -493 1305 -557 123
-16 509 -16 625 0 459 65 859 227 1218 495 141 105 328 284 444 424 394 478
603 1094 579 1708 -20 535 -191 1022 -509 1448 -409 549 -1042 918 -1727 1007
-115 15 -443 21 -560 10z m391 -1280 c183 -15 306 -49 460 -126 206 -102 391
-288 497 -499 24 -48 82 -211 82 -231 0 -12 -51 -14 -323 -14 l-323 0 -21 44
c-30 60 -124 159 -191 200 -255 152 -608 84 -782 -151 -99 -134 -142 -285
-142 -498 0 -241 64 -418 201 -554 114 -114 255 -171 418 -171 200 1 400 111
489 269 l29 51 323 0 c189 0 322 -4 322 -9 0 -18 -62 -186 -87 -236 -113 -226
-330 -430 -562 -526 -276 -115 -648 -125 -940 -24 -391 134 -679 468 -766 890
-38 186 -38 443 0 624 51 245 171 466 342 632 99 96 171 148 288 206 157 79
316 117 550 131 11 1 72 -3 136 -8z"/>
</g>
</svg>
